<svg width="32" height="32" viewBox="0 0 32 32" fill="none" xmlns="http://www.w3.org/2000/svg">
  <defs>
    <linearGradient id="brainGradient" x1="0%" y1="0%" x2="100%" y2="100%">
      <stop offset="0%" style="stop-color:#6F2B7F;stop-opacity:1" />
      <stop offset="33%" style="stop-color:#C93A60;stop-opacity:1" />
      <stop offset="66%" style="stop-color:#E55C3B;stop-opacity:1" />
      <stop offset="100%" style="stop-color:#F67B27;stop-opacity:1" />
    </linearGradient>
  </defs>
  
  <!-- Background circle -->
  <circle cx="16" cy="16" r="15" fill="#0F0F0F" stroke="url(#brainGradient)" stroke-width="2"/>
  
  <!-- Brain icon simplified -->
  <path d="M12 8c-1.5 0-3 1-3 2.5 0 .5.2 1 .5 1.4-.3.4-.5.9-.5 1.4 0 1 .7 1.8 1.5 2.2-.3.3-.5.7-.5 1.2 0 1 .8 1.8 1.8 1.8.3 0 .6-.1.9-.2.2.7.8 1.2 1.5 1.2s1.3-.5 1.5-1.2c.3.1.6.2.9.2 1 0 1.8-.8 1.8-1.8 0-.5-.2-.9-.5-1.2.8-.4 1.5-1.2 1.5-2.2 0-.5-.2-1-.5-1.4.3-.4.5-.9.5-1.4 0-1.5-1.5-2.5-3-2.5-1 0-1.9.4-2.5 1-.6-.6-1.5-1-2.5-1z" fill="url(#brainGradient)"/>
  
  <!-- Neural connections -->
  <circle cx="11" cy="12" r="1" fill="#F67B27" opacity="0.8"/>
  <circle cx="21" cy="12" r="1" fill="#F67B27" opacity="0.8"/>
  <circle cx="16" cy="15" r="1" fill="#C93A60" opacity="0.8"/>
  <circle cx="13" cy="18" r="1" fill="#6F2B7F" opacity="0.8"/>
  <circle cx="19" cy="18" r="1" fill="#6F2B7F" opacity="0.8"/>
  
  <!-- Connection lines -->
  <line x1="11" y1="12" x2="16" y2="15" stroke="#F67B27" stroke-width="0.5" opacity="0.6"/>
  <line x1="21" y1="12" x2="16" y2="15" stroke="#F67B27" stroke-width="0.5" opacity="0.6"/>
  <line x1="16" y1="15" x2="13" y2="18" stroke="#C93A60" stroke-width="0.5" opacity="0.6"/>
  <line x1="16" y1="15" x2="19" y2="18" stroke="#C93A60" stroke-width="0.5" opacity="0.6"/>
</svg>